<svg width="25" height="25" viewBox="0 0 25 25" fill="none" xmlns="http://www.w3.org/2000/svg">
<path d="M8.85989 19.2764H16.1401C17.4874 19.2764 18.562 18.8933 19.2999 18.1645C20.038 17.4356 20.4262 16.3736 20.4262 15.0422V10.0092C20.4262 8.67771 20.038 7.61577 19.2999 6.88683C18.562 6.15807 17.4874 5.775 16.1401 5.775H8.85989C7.51261 5.775 6.438 6.15807 5.70009 6.88683C4.962 7.61577 4.57377 8.67771 4.57377 10.0092V15.0422C4.57377 16.3736 4.962 17.4356 5.70009 18.1645C6.438 18.8933 7.51261 19.2764 8.85989 19.2764ZM5.8658 10.0092C5.8658 8.99606 6.11506 8.26259 6.60231 7.78138C7.08981 7.29993 7.83322 7.05349 8.85989 7.05349H16.1401C17.1668 7.05349 17.9102 7.29993 18.3977 7.78138C18.8849 8.26259 19.1342 8.99606 19.1342 10.0092V15.0422C19.1342 16.0553 18.8849 16.7888 18.3977 17.27C17.9102 17.7514 17.1668 17.9979 16.1401 17.9979H8.85989C7.83322 17.9979 7.08981 17.7514 6.60231 17.27C6.11506 16.7888 5.8658 16.0553 5.8658 15.0422V10.0092Z" fill="#1F4343" stroke="#1F4343" stroke-width="0.2"/>
<path d="M8.45498 10.8637L8.45497 10.8637L8.45563 10.8642L10.7339 12.6614C11.2275 13.0587 11.8693 13.2512 12.4998 13.2512C13.1301 13.2512 13.7721 13.0588 14.2587 12.6612L16.5358 10.865C16.8215 10.6503 16.8636 10.2411 16.6405 9.96855C16.4229 9.68649 16.0102 9.64614 15.7355 9.86623C15.7354 9.86632 15.7353 9.86641 15.7352 9.86649L13.4571 11.6635L13.4569 11.6636C13.2012 11.8663 12.8513 11.9709 12.4962 11.9709C12.1411 11.9709 11.7912 11.8663 11.5354 11.6636L11.5353 11.6635L9.25721 9.86649C9.2571 9.8664 9.25699 9.86631 9.25687 9.86622C8.97928 9.64378 8.57536 9.69693 8.35298 9.96723C8.12636 10.2427 8.18099 10.6438 8.45498 10.8637Z" fill="#1F4343" stroke="#1F4343" stroke-width="0.2"/>
</svg>
