<svg width="18" height="15" viewBox="0 0 18 15" fill="none" xmlns="http://www.w3.org/2000/svg">
<path d="M5.30416 14.2764H12.5844C13.9317 14.2764 15.0063 13.8933 15.7442 13.1645C16.4823 12.4356 16.8705 11.3736 16.8705 10.0422V5.00921C16.8705 3.67771 16.4823 2.61577 15.7442 1.88683C15.0063 1.15807 13.9317 0.775 12.5844 0.775H5.30416C3.95689 0.775 2.88227 1.15807 2.14436 1.88683C1.40627 2.61577 1.01804 3.67771 1.01804 5.00921V10.0422C1.01804 11.3736 1.40627 12.4356 2.14436 13.1645C2.88227 13.8933 3.95689 14.2764 5.30416 14.2764ZM2.31007 5.00921C2.31007 3.99606 2.55933 3.26259 3.04658 2.78138C3.53408 2.29993 4.27749 2.05349 5.30416 2.05349H12.5844C13.6111 2.05349 14.3545 2.29993 14.842 2.78138C15.3292 3.26259 15.5785 3.99606 15.5785 5.00921V10.0422C15.5785 11.0553 15.3292 11.7888 14.842 12.27C14.3545 12.7514 13.6111 12.9979 12.5844 12.9979H5.30416C4.27749 12.9979 3.53408 12.7514 3.04658 12.27C2.55933 11.7888 2.31007 11.0553 2.31007 10.0422V5.00921Z" fill="#1F4343" stroke="#1F4343" stroke-width="0.2"/>
<path d="M4.89927 5.86369L4.89927 5.86369L4.89993 5.86421L7.17825 7.66138C7.6718 8.05865 8.31356 8.25117 8.94414 8.25117C9.5744 8.25117 10.2164 8.05881 10.703 7.66115L12.9801 5.86497C13.2658 5.65026 13.3078 5.24113 13.0848 4.96853C12.8672 4.68647 12.4545 4.64612 12.1798 4.86622C12.1797 4.8663 12.1796 4.86639 12.1795 4.86648L9.90143 6.66344L9.90124 6.66359C9.64552 6.8663 9.29558 6.97089 8.94049 6.97089C8.58541 6.97089 8.23547 6.8663 7.97974 6.66359L7.97956 6.66344L5.70151 4.86648C5.7014 4.86639 5.70128 4.8663 5.70117 4.86621C5.42357 4.64376 5.01966 4.69691 4.79728 4.96722C4.57065 5.24268 4.62528 5.64383 4.89927 5.86369Z" fill="#1F4343" stroke="#1F4343" stroke-width="0.2"/>
</svg>
