<svg width="14" height="14" viewBox="0 0 14 14" fill="none" xmlns="http://www.w3.org/2000/svg">
<path d="M11.3575 3.81938C11.305 3.62688 11.1212 3.47813 10.9243 3.5C10.7231 3.50875 10.5525 3.64875 10.5087 3.85C10.325 4.72938 9.7212 5.71375 9.19183 5.71375C9.01683 5.71375 8.83308 5.60438 8.6362 5.39C7.94058 4.63313 7.5337 1.84188 7.43745 0.831251C7.41995 0.673751 7.31495 0.533751 7.1662 0.472501C7.01745 0.411251 6.84683 0.433126 6.72433 0.538126C4.5412 2.33188 4.32245 5.15813 4.33995 6.41813C3.44745 5.9675 3.04933 4.69875 3.04495 4.68563C2.9837 4.48875 2.80433 4.3575 2.59433 4.375C2.3887 4.3925 2.22245 4.54125 2.19183 4.74688C1.6712 8.07625 2.06495 10.5306 3.3512 12.0356C4.5412 13.4225 6.1337 13.5712 6.75933 13.5712C6.92558 13.5712 7.03058 13.5625 7.03058 13.5625C8.6712 13.4531 9.91808 12.8187 10.7362 11.6681C12.7268 8.86813 11.4143 4.025 11.3575 3.81938Z" fill="#BF4D48"/>
</svg>
