<svg width="23" height="23" viewBox="0 0 23 23" fill="none" xmlns="http://www.w3.org/2000/svg">
<path d="M14.6121 2.83514C12.6421 1.27546 9.85792 1.27546 7.88785 2.83514L3.55452 6.2657C2.25678 7.29308 1.5 8.85742 1.5 10.5126V15.6385C1.5 18.6301 3.92513 21.0552 6.91667 21.0552H15.5833C18.5749 21.0552 21 18.6301 21 15.6385V10.5126C21 8.85742 20.2432 7.29308 18.9455 6.26569L14.6121 2.83514Z" fill="#509999"/>
<path d="M11.25 13.4717C8.85672 13.4717 6.91663 15.4119 6.91663 17.8051C6.91663 18.4034 7.40166 18.8884 7.99996 18.8884H14.5C15.0983 18.8884 15.5833 18.4034 15.5833 17.8051C15.5833 15.4119 13.6432 13.4717 11.25 13.4717Z" fill="#1F4343"/>
</svg>
