<svg width="16" height="19" viewBox="0 0 16 19" fill="none" xmlns="http://www.w3.org/2000/svg">
<g opacity="0.4">
<path d="M1.34261 15.6162C1.53117 16.9994 2.69122 18.083 4.1029 18.1471C5.29077 18.201 6.49743 18.2292 7.82624 18.2292C9.15505 18.2292 10.3617 18.201 11.5496 18.1471C12.9613 18.083 14.1213 16.9994 14.3099 15.6162C14.4329 14.7135 14.5344 13.7885 14.5344 12.8464C14.5344 11.9043 14.4329 10.9792 14.3099 10.0765C14.1213 8.69333 12.9613 7.6097 11.5496 7.54561C10.3617 7.49168 9.15505 7.46355 7.82624 7.46355C6.49743 7.46355 5.29077 7.49168 4.1029 7.54561C2.69122 7.6097 1.53117 8.69333 1.34261 10.0765C1.21954 10.9792 1.11804 11.9043 1.11804 12.8464C1.11804 13.7885 1.21954 14.7135 1.34261 15.6162Z" stroke="#8A8D90" stroke-width="1.5"/>
<path d="M4.05286 7.46355V5.39323C4.05286 3.33511 5.74225 1.66667 7.82622 1.66667C9.91019 1.66667 11.5996 3.33511 11.5996 5.39323V7.46355" stroke="#8A8D90" stroke-width="1.5" stroke-linecap="round" stroke-linejoin="round"/>
<path d="M7.82294 12.8464H7.83047" stroke="#8A8D90" stroke-width="2" stroke-linecap="round" stroke-linejoin="round"/>
</g>
</svg>
