<svg width="25" height="25" viewBox="0 0 25 25" fill="none" xmlns="http://www.w3.org/2000/svg">
<g opacity="0.4">
<path d="M6.01637 17.6162C6.20493 18.9994 7.36498 20.083 8.77666 20.1471C9.96453 20.2011 11.1712 20.2292 12.5 20.2292C13.8288 20.2292 15.0355 20.2011 16.2233 20.1471C17.635 20.083 18.7951 18.9994 18.9836 17.6162C19.1067 16.7135 19.2082 15.7885 19.2082 14.8464C19.2082 13.9043 19.1067 12.9792 18.9836 12.0765C18.7951 10.6933 17.635 9.60972 16.2233 9.54562C15.0355 9.49169 13.8288 9.46356 12.5 9.46356C11.1712 9.46356 9.96453 9.49169 8.77666 9.54562C7.36498 9.60972 6.20493 10.6933 6.01637 12.0765C5.8933 12.9792 5.7918 13.9043 5.7918 14.8464C5.7918 15.7885 5.8933 16.7135 6.01637 17.6162Z" stroke="#8A8D90" stroke-width="1.5"/>
<path d="M8.72664 9.46356V7.39325C8.72664 5.33513 10.416 3.66669 12.5 3.66669C14.584 3.66669 16.2734 5.33513 16.2734 7.39325V9.46356" stroke="#8A8D90" stroke-width="1.5" stroke-linecap="round" stroke-linejoin="round"/>
<path d="M12.4967 14.8464H12.5043" stroke="#8A8D90" stroke-width="2" stroke-linecap="round" stroke-linejoin="round"/>
</g>
</svg>
