<svg width="25" height="25" viewBox="0 0 25 25" fill="none" xmlns="http://www.w3.org/2000/svg">
<g opacity="0.5">
<path d="M8.16206 15.2854C7.03025 15.9594 4.06269 17.3355 5.87013 19.0574C6.75305 19.8986 7.7364 20.5002 8.9727 20.5002H16.0273C17.2636 20.5002 18.247 19.8986 19.1299 19.0574C20.9373 17.3355 17.9698 15.9594 16.8379 15.2854C14.1839 13.7051 10.8162 13.7051 8.16206 15.2854Z" stroke="#8A8D90" stroke-width="1.5" stroke-linecap="round" stroke-linejoin="round"/>
<path d="M16.0998 8.1C16.0998 10.0882 14.488 11.7 12.4998 11.7C10.5115 11.7 8.89975 10.0882 8.89975 8.1C8.89975 6.11178 10.5115 4.5 12.4998 4.5C14.488 4.5 16.0998 6.11178 16.0998 8.1Z" stroke="#8A8D90" stroke-width="1.5"/>
</g>
</svg>
